<svg preserveAspectRatio="none" width="100%" height="100%" overflow="visible" style="display: block;" viewBox="0 0 87.3213 56" fill="none" xmlns="http://www.w3.org/2000/svg">
<path id="Union" d="M87.3213 56H83.3213V0H87.3213V56ZM32.0684 0.608398C32.4046 1.63583 32.7403 2.66716 33.04 3.73535C33.3398 2.66717 33.6755 1.63582 34.0117 0.608398L45.2461 0.5H47.1084L47.0088 4.99414H35.0488C34.6567 6.62538 34.4609 8.42355 34.4609 10.3877C34.4609 14.4158 35.6372 17.7285 37.9902 20.3252C40.376 22.8885 44.053 24.1699 49.0205 24.1699C53.988 24.1699 57.7629 22.8545 60.3447 20.2246C62.959 17.5614 64.2666 14.2155 64.2666 10.1875C64.2666 9.28221 64.2158 8.42182 64.1143 7.60645C63.8069 5.13841 61.7287 3.42379 59.3242 2.78809L56.7168 2.09863V0.5L65.6387 0.799805L66.0801 11.0869C66.08 16.1801 64.7402 20.5744 62.0605 24.2695C60.9295 25.8432 59.4478 27.1428 57.6182 28.1709C59.4478 29.199 60.9295 30.4986 62.0605 32.0723C64.7402 35.7674 66.08 40.1617 66.0801 45.2549L65.6387 55.542L56.7168 55.8418V54.2432L59.3242 53.5537C61.7287 52.918 63.8069 51.2034 64.1143 48.7354C64.2158 47.92 64.2666 47.0596 64.2666 46.1543C64.2666 42.1263 62.959 38.7804 60.3447 36.1172C57.7629 33.4873 53.988 32.1719 49.0205 32.1719C44.053 32.1719 40.376 33.4533 37.9902 36.0166C35.6372 38.6133 34.461 41.926 34.4609 45.9541C34.4609 47.9182 34.6567 49.7164 35.0488 51.3477H47.0088L47.1084 55.8418H45.2461L34.0117 55.7334C33.6754 54.7057 33.3399 53.674 33.04 52.6055C32.7402 53.674 32.4047 54.7057 32.0684 55.7334L20.834 55.8418H18.9717L19.0713 51.3477H31.0312C31.4234 49.7164 31.6191 47.9182 31.6191 45.9541C31.6191 41.926 30.4429 38.6133 28.0898 36.0166C25.7041 33.4532 22.0271 32.1719 17.0596 32.1719C12.092 32.1719 8.31716 33.4872 5.73535 36.1172C3.12105 38.7804 1.81348 42.1263 1.81348 46.1543C1.81349 47.0596 1.86429 47.92 1.96582 48.7354C2.27317 51.2034 4.35137 52.918 6.75586 53.5537L9.36328 54.2432V55.8418L0.441406 55.542L0 45.2549C3.19966e-05 40.1616 1.33985 35.7674 4.01953 32.0723C5.15046 30.4988 6.63157 29.1989 8.46094 28.1709C6.63157 27.1429 5.15046 25.843 4.01953 24.2695C1.33985 20.5744 3.23059e-05 16.1802 0 11.0869L0.441406 0.799805L9.36328 0.5V2.09863L6.75586 2.78809C4.35137 3.42379 2.27318 5.13841 1.96582 7.60645C1.86429 8.42183 1.81349 9.2822 1.81348 10.1875C1.81348 14.2155 3.12105 17.5614 5.73535 20.2246C8.31716 22.8546 12.092 24.1699 17.0596 24.1699C22.0271 24.1699 25.7041 22.8886 28.0898 20.3252C30.4429 17.7285 31.6191 14.4158 31.6191 10.3877C31.6191 8.42355 31.4234 6.62538 31.0312 4.99414H19.0713L18.9717 0.5H20.834L32.0684 0.608398ZM33.0391 18.5693C32.0425 21.8197 30.4223 24.4297 28.4814 26.3672C27.8184 27.0426 27.0461 27.6435 26.165 28.1709C27.0461 28.6983 27.8184 29.2992 28.4814 29.9746C30.4221 31.9119 32.0425 34.5215 33.0391 37.7715C34.0356 34.5213 35.6579 31.912 37.5986 29.9746C38.2615 29.2994 39.0333 28.6982 39.9141 28.1709C39.0333 27.6436 38.2615 27.0424 37.5986 26.3672C35.6577 24.4296 34.0356 21.82 33.0391 18.5693Z" fill="var(--fill-0, #AA90FF)"/>
</svg>
