<svg preserveAspectRatio="none" width="100%" height="100%" overflow="visible" style="display: block;" viewBox="0 0 206.068 35.7" fill="none" xmlns="http://www.w3.org/2000/svg">
<g id="Vector">
<path d="M0 35.5259L3.16338 26.6846H4.9905L8.15387 35.5259H6.80399L4.15875 27.7161H3.99513L1.34989 35.5259H0ZM1.49988 33.5433V32.6056H6.80399V33.5433H1.49988Z" fill="var(--fill-0, #AA90FF)"/>
<path d="M11.9248 35.7C11.3248 35.7 10.8112 35.5437 10.384 35.2311C9.95674 34.9186 9.6295 34.4899 9.40224 33.9451C9.18408 33.4004 9.075 32.7752 9.075 32.0697C9.075 31.3642 9.18408 30.7391 9.40224 30.1943C9.62041 29.6495 9.93856 29.2209 10.3567 28.9083C10.7749 28.5957 11.2885 28.4394 11.8975 28.4394C12.3975 28.4394 12.8065 28.5421 13.1247 28.7475C13.4428 28.9529 13.6973 29.2209 13.8882 29.5513C14.0882 29.8728 14.2337 30.2256 14.3246 30.6096H14.57C14.5245 30.3506 14.4836 30.0827 14.4473 29.8058C14.4109 29.52 14.3791 29.2432 14.3518 28.9753C14.3246 28.6984 14.3109 28.4528 14.3109 28.2385V26.1487H15.5654V35.5259H14.4473L14.5155 33.6504H14.2973C14.1882 34.0523 14.0337 34.4095 13.8337 34.7221C13.6337 35.0257 13.3792 35.2669 13.0701 35.4455C12.7611 35.6152 12.3793 35.7 11.9248 35.7ZM12.2111 34.6283C12.5383 34.6283 12.8338 34.5524 13.0974 34.4006C13.361 34.2488 13.5837 34.0523 13.7655 33.8112C13.9473 33.5611 14.0837 33.2932 14.1746 33.0074C14.2746 32.7217 14.3246 32.4448 14.3246 32.1769V32.0161C14.3246 31.8286 14.2973 31.6277 14.2428 31.4133C14.1882 31.1901 14.1064 30.9668 13.9973 30.7435C13.8973 30.5203 13.761 30.3149 13.5883 30.1273C13.4246 29.9308 13.2292 29.779 13.0019 29.6719C12.7747 29.5558 12.5202 29.4977 12.2384 29.4977C11.8293 29.4977 11.4839 29.6138 11.2021 29.846C10.9294 30.0693 10.7203 30.3774 10.5749 30.7703C10.4385 31.1633 10.3703 31.6053 10.3703 32.0965C10.3703 32.6056 10.4431 33.0521 10.5885 33.4361C10.734 33.8112 10.943 34.1059 11.2157 34.3202C11.4975 34.5256 11.8293 34.6283 12.2111 34.6283Z" fill="var(--fill-0, #AA90FF)"/>
<path d="M19.4299 35.5259L16.9074 28.6136H18.2845L20.2071 34.4944H20.398L22.3069 28.6136H23.6568L21.1479 35.5259H19.4299Z" fill="var(--fill-0, #AA90FF)"/>
<path d="M27.8764 35.7C27.2037 35.7 26.6083 35.5571 26.0902 35.2713C25.5811 34.9766 25.1812 34.5569 24.8903 34.0121C24.6085 33.4674 24.4676 32.8065 24.4676 32.0295C24.4676 31.2258 24.6176 30.5605 24.9176 30.0335C25.2266 29.4977 25.6357 29.0958 26.1447 28.8279C26.6538 28.56 27.2219 28.426 27.8491 28.426C28.5036 28.426 29.0854 28.5689 29.5944 28.8547C30.1126 29.1316 30.5216 29.5424 30.8216 30.0871C31.1216 30.623 31.2716 31.2883 31.2716 32.0831C31.2716 32.8779 31.1216 33.5433 30.8216 34.0791C30.5307 34.6149 30.1262 35.0213 29.6081 35.2981C29.099 35.566 28.5218 35.7 27.8764 35.7ZM27.9309 34.6953C28.3673 34.6953 28.74 34.5926 29.049 34.3872C29.3672 34.1729 29.6081 33.8737 29.7717 33.4897C29.9444 33.1057 30.0308 32.6502 30.0308 32.1233C30.0308 31.5785 29.9399 31.1097 29.7581 30.7167C29.5853 30.3149 29.3354 30.0068 29.0081 29.7924C28.6809 29.5692 28.2855 29.4575 27.8219 29.4575C27.4037 29.4575 27.0356 29.5558 26.7174 29.7522C26.3992 29.9487 26.1538 30.239 25.9811 30.623C25.8084 30.9981 25.722 31.458 25.722 32.0027C25.722 32.8422 25.9175 33.5031 26.3083 33.9853C26.7083 34.4587 27.2492 34.6953 27.9309 34.6953Z" fill="var(--fill-0, #AA90FF)"/>
<path d="M36.0655 35.7C35.4474 35.7 34.9202 35.6018 34.4838 35.4053C34.0566 35.2088 33.7066 34.9454 33.4339 34.6149C33.1703 34.2845 32.9749 33.905 32.8476 33.4763C32.7294 33.0476 32.6704 32.6011 32.6704 32.1367C32.6704 31.6277 32.7385 31.1499 32.8749 30.7033C33.0112 30.2568 33.2158 29.8639 33.4885 29.5245C33.7703 29.1762 34.1157 28.9083 34.5247 28.7208C34.9429 28.5243 35.4292 28.426 35.9837 28.426C36.52 28.426 36.9927 28.5198 37.4018 28.7074C37.8108 28.886 38.1426 29.1405 38.3972 29.4709C38.6608 29.8014 38.8289 30.1943 38.9017 30.6498L37.7154 30.9713C37.6972 30.7212 37.6199 30.4801 37.4836 30.2479C37.3563 30.0157 37.1654 29.8281 36.9109 29.6853C36.6564 29.5334 36.3428 29.4575 35.9701 29.4575C35.6156 29.4575 35.311 29.5245 35.0565 29.6585C34.8111 29.7924 34.602 29.98 34.4293 30.2211C34.2657 30.4622 34.1384 30.7435 34.0475 31.065C33.9657 31.3865 33.9248 31.7348 33.9248 32.1099C33.9248 32.6279 33.9975 33.0789 34.143 33.4629C34.2975 33.8469 34.5338 34.1461 34.852 34.3604C35.1701 34.5747 35.5792 34.6819 36.0792 34.6819C36.4519 34.6819 36.77 34.6194 37.0336 34.4944C37.2972 34.3604 37.5063 34.1773 37.6609 33.9451C37.8154 33.704 37.9154 33.4227 37.9608 33.1012L39.1062 33.3557C39.0426 33.7397 38.9244 34.0791 38.7517 34.3738C38.579 34.6685 38.3608 34.9141 38.0972 35.1106C37.8336 35.2981 37.529 35.441 37.1836 35.5393C36.8473 35.6464 36.4746 35.7 36.0655 35.7Z" fill="var(--fill-0, #AA90FF)"/>
<path d="M42.3043 35.7C41.9225 35.7 41.5771 35.6286 41.268 35.4857C40.9589 35.3338 40.7135 35.115 40.5317 34.8293C40.3499 34.5346 40.259 34.1639 40.259 33.7174C40.259 33.387 40.3181 33.0967 40.4363 32.8467C40.5635 32.5966 40.7544 32.3823 41.0089 32.2037C41.2726 32.0251 41.6089 31.8777 42.018 31.7616C42.427 31.6455 42.927 31.5473 43.5178 31.4669C43.8542 31.4223 44.1269 31.3776 44.3359 31.3329C44.5541 31.2883 44.7132 31.2168 44.8132 31.1186C44.9132 31.0114 44.9632 30.8552 44.9632 30.6498C44.9632 30.3104 44.845 30.0246 44.6086 29.7924C44.3723 29.5602 43.9996 29.4441 43.4906 29.4441C43.2269 29.4441 42.9588 29.4888 42.6861 29.5781C42.4134 29.6674 42.1725 29.8192 41.9634 30.0335C41.7634 30.239 41.6362 30.5292 41.5816 30.9043L40.4363 30.5292C40.509 30.2077 40.6272 29.9174 40.7908 29.6585C40.9635 29.3995 41.1817 29.1807 41.4453 29.0021C41.7089 28.8145 42.0134 28.6716 42.3588 28.5734C42.7133 28.4752 43.1042 28.426 43.5315 28.426C44.1223 28.426 44.6132 28.5243 45.0041 28.7208C45.404 28.9172 45.6995 29.2209 45.8904 29.6317C46.0903 30.0335 46.1903 30.5515 46.1903 31.1856V32.7261C46.1903 33.003 46.1949 33.3066 46.204 33.637C46.2222 33.9585 46.2449 34.2845 46.2721 34.6149C46.2994 34.9364 46.3267 35.2401 46.354 35.5259H45.2086C45.1813 35.2401 45.1541 34.9543 45.1268 34.6685C45.1086 34.3827 45.095 34.097 45.0859 33.8112H44.9086C44.7723 34.1416 44.5905 34.4497 44.3632 34.7355C44.136 35.0213 43.8496 35.2535 43.5042 35.4321C43.1679 35.6107 42.7679 35.7 42.3043 35.7ZM42.6724 34.7087C42.8724 34.7087 43.0724 34.6775 43.2724 34.6149C43.4815 34.5524 43.686 34.4497 43.886 34.3068C44.0951 34.1639 44.2905 33.9809 44.4723 33.7576C44.6632 33.5343 44.8314 33.2664 44.9768 32.9538V31.6143L45.3313 31.6812C45.1859 31.8241 44.9904 31.9313 44.745 32.0027C44.5087 32.0742 44.245 32.1322 43.9542 32.1769C43.6633 32.2215 43.3724 32.2707 43.0815 32.3242C42.7906 32.3689 42.5225 32.4403 42.277 32.5386C42.0407 32.6279 41.8498 32.7574 41.7043 32.9271C41.5589 33.0967 41.4862 33.3289 41.4862 33.6236C41.4862 33.9809 41.5953 34.2532 41.8134 34.4408C42.0316 34.6194 42.3179 34.7087 42.6724 34.7087Z" fill="var(--fill-0, #AA90FF)"/>
<path d="M51.2986 35.7C50.6805 35.7 50.1533 35.6018 49.717 35.4053C49.2897 35.2088 48.9398 34.9454 48.6671 34.6149C48.4034 34.2845 48.208 33.905 48.0807 33.4763C47.9626 33.0476 47.9035 32.6011 47.9035 32.1367C47.9035 31.6277 47.9717 31.1499 48.108 30.7033C48.2444 30.2568 48.4489 29.8639 48.7216 29.5245C49.0034 29.1762 49.3488 28.9083 49.7579 28.7208C50.176 28.5243 50.6623 28.426 51.2168 28.426C51.7532 28.426 52.2258 28.5198 52.6349 28.7074C53.044 28.886 53.3758 29.1405 53.6303 29.4709C53.8939 29.8014 54.0621 30.1943 54.1348 30.6498L52.9485 30.9713C52.9303 30.7212 52.8531 30.4801 52.7167 30.2479C52.5895 30.0157 52.3986 29.8281 52.144 29.6853C51.8895 29.5334 51.5759 29.4575 51.2032 29.4575C50.8487 29.4575 50.5442 29.5245 50.2896 29.6585C50.0442 29.7924 49.8351 29.98 49.6624 30.2211C49.4988 30.4622 49.3715 30.7435 49.2806 31.065C49.1988 31.3865 49.1579 31.7348 49.1579 32.1099C49.1579 32.6279 49.2306 33.0789 49.3761 33.4629C49.5306 33.8469 49.767 34.1461 50.0851 34.3604C50.4033 34.5747 50.8123 34.6819 51.3123 34.6819C51.685 34.6819 52.0031 34.6194 52.2668 34.4944C52.5304 34.3604 52.7394 34.1773 52.894 33.9451C53.0485 33.704 53.1485 33.4227 53.194 33.1012L54.3393 33.3557C54.2757 33.7397 54.1575 34.0791 53.9848 34.3738C53.8121 34.6685 53.5939 34.9141 53.3303 35.1106C53.0667 35.2981 52.7622 35.441 52.4167 35.5393C52.0804 35.6464 51.7077 35.7 51.2986 35.7Z" fill="var(--fill-0, #AA90FF)"/>
<path d="M55.7687 35.5259V28.6002H57.0095V35.5259H55.7687ZM56.3959 27.3946C56.105 27.3946 55.8868 27.3365 55.7414 27.2204C55.596 27.1043 55.5232 26.9302 55.5232 26.698C55.5232 26.4658 55.596 26.2916 55.7414 26.1755C55.8868 26.0594 56.1005 26.0014 56.3822 26.0014C56.6731 26.0014 56.8913 26.0594 57.0367 26.1755C57.1822 26.2916 57.2549 26.4658 57.2549 26.698C57.2549 26.9212 57.1822 27.0954 57.0367 27.2204C56.8913 27.3365 56.6777 27.3946 56.3959 27.3946Z" fill="var(--fill-0, #AA90FF)"/>
<path d="M60.7864 35.7C60.4047 35.7 60.0592 35.6286 59.7502 35.4857C59.4411 35.3338 59.1957 35.115 59.0139 34.8293C58.8321 34.5346 58.7412 34.1639 58.7412 33.7174C58.7412 33.387 58.8002 33.0967 58.9184 32.8467C59.0457 32.5966 59.2366 32.3823 59.4911 32.2037C59.7547 32.0251 60.091 31.8777 60.5001 31.7616C60.9092 31.6455 61.4091 31.5473 62 31.4669C62.3363 31.4223 62.609 31.3776 62.8181 31.3329C63.0362 31.2883 63.1953 31.2168 63.2953 31.1186C63.3953 31.0114 63.4453 30.8552 63.4453 30.6498C63.4453 30.3104 63.3271 30.0246 63.0908 29.7924C62.8544 29.5602 62.4818 29.4441 61.9727 29.4441C61.7091 29.4441 61.4409 29.4888 61.1682 29.5781C60.8955 29.6674 60.6546 29.8192 60.4456 30.0335C60.2456 30.239 60.1183 30.5292 60.0638 30.9043L58.9184 30.5292C58.9911 30.2077 59.1093 29.9174 59.2729 29.6585C59.4456 29.3995 59.6638 29.1807 59.9274 29.0021C60.191 28.8145 60.4955 28.6716 60.841 28.5734C61.1955 28.4752 61.5864 28.426 62.0136 28.426C62.6045 28.426 63.0953 28.5243 63.4862 28.7208C63.8862 28.9172 64.1816 29.2209 64.3725 29.6317C64.5725 30.0335 64.6725 30.5515 64.6725 31.1856V32.7261C64.6725 33.003 64.677 33.3066 64.6861 33.637C64.7043 33.9585 64.727 34.2845 64.7543 34.6149C64.7816 34.9364 64.8088 35.2401 64.8361 35.5259H63.6907C63.6635 35.2401 63.6362 34.9543 63.6089 34.6685C63.5907 34.3827 63.5771 34.097 63.568 33.8112H63.3908C63.2544 34.1416 63.0726 34.4497 62.8454 34.7355C62.6181 35.0213 62.3318 35.2535 61.9863 35.4321C61.65 35.6107 61.25 35.7 60.7864 35.7ZM61.1546 34.7087C61.3546 34.7087 61.5546 34.6775 61.7545 34.6149C61.9636 34.5524 62.1681 34.4497 62.3681 34.3068C62.5772 34.1639 62.7726 33.9809 62.9544 33.7576C63.1453 33.5343 63.3135 33.2664 63.4589 32.9538V31.6143L63.8135 31.6812C63.668 31.8241 63.4726 31.9313 63.2271 32.0027C62.9908 32.0742 62.7272 32.1322 62.4363 32.1769C62.1454 32.2215 61.8545 32.2707 61.5636 32.3242C61.2728 32.3689 61.0046 32.4403 60.7592 32.5386C60.5228 32.6279 60.3319 32.7574 60.1865 32.9271C60.041 33.0967 59.9683 33.3289 59.9683 33.6236C59.9683 33.9809 60.0774 34.2532 60.2956 34.4408C60.5137 34.6194 60.8001 34.7087 61.1546 34.7087Z" fill="var(--fill-0, #AA90FF)"/>
<path d="M8.56975 1.86872L13.0694 2.04957L13.1921 5.70664H12.4558L11.7604 3.07435C10.8196 2.76625 9.91282 2.6122 9.04016 2.6122C7.41757 2.6122 6.10177 3.14133 5.09276 4.19961C4.08375 5.24448 3.57925 6.79841 3.57925 8.86137C3.57925 10.9109 4.07012 12.418 5.05186 13.3825C6.03359 14.347 7.30167 14.8292 8.85609 14.8292C9.41513 14.8292 10.0219 14.789 10.6764 14.7087V10.2277L8.97881 10.0469V9.56465H14.5215V10.0469L13.2944 10.2277V15.0101C11.59 15.3718 10.0969 15.5526 8.81518 15.5526C7.54711 15.5526 6.4631 15.4521 5.56318 15.2512C4.66325 15.0369 3.81787 14.6953 3.02702 14.2264C2.23618 13.7576 1.61578 13.0811 1.16581 12.1969C0.729485 11.3128 0.511322 10.2545 0.511322 9.02212C0.511322 7.7897 0.736303 6.70463 1.18627 5.76692C1.64986 4.81582 2.27027 4.06565 3.04748 3.51642C4.60189 2.41795 6.44265 1.86872 8.56975 1.86872Z" fill="var(--fill-0, #AA90FF)"/>
<path d="M21.5754 10.7301C19.9937 10.7301 18.9983 11.1387 18.5893 11.9558C18.412 12.3041 18.3234 12.7395 18.3234 13.2619C18.3234 14.1594 18.637 14.6819 19.2642 14.8292C19.3596 14.856 19.4619 14.8694 19.571 14.8694C20.0073 14.8694 20.4436 14.6484 20.88 14.2063C21.3163 13.7509 21.5481 13.1681 21.5754 12.4582V10.7301ZM18.3029 8.7609C18.0029 8.96184 17.6893 9.06231 17.3621 9.06231C17.0348 9.06231 16.7553 8.95514 16.5235 8.74081C16.2917 8.52647 16.1758 8.21167 16.1758 7.7964C16.1758 7.36773 16.3054 6.98595 16.5644 6.65105C16.8235 6.31615 17.1576 6.06833 17.5666 5.90758C18.3711 5.57268 19.1347 5.40523 19.8573 5.40523C21.4663 5.40523 22.5639 5.68655 23.1502 6.24917C23.7366 6.79841 24.0297 7.64904 24.0297 8.80109V14.8493L25.7478 14.9699V15.412L21.8413 15.6531L21.6572 13.9652C21.0163 15.1038 19.9119 15.6732 18.3438 15.6732C17.6348 15.6732 17.0212 15.4655 16.5031 15.0503C15.9986 14.6216 15.7463 14.0255 15.7463 13.2619C15.7599 12.2438 16.2781 11.4803 17.3007 10.9712C18.3234 10.4488 19.7482 10.1876 21.5754 10.1876V8.45949C21.5754 7.64235 21.4595 7.01274 21.2277 6.57068C20.9959 6.12861 20.5664 5.90758 19.9391 5.90758C19.3119 5.90758 18.8415 6.1621 18.5279 6.67114C18.3234 7.00604 18.2211 7.36103 18.2211 7.73612C18.2211 8.1112 18.2484 8.4528 18.3029 8.7609Z" fill="var(--fill-0, #AA90FF)"/>
<path d="M29.7469 3.33557C29.7469 5.29137 29.7333 6.51709 29.706 7.01274C30.4423 5.94107 31.5604 5.40523 33.0603 5.40523C34.2602 5.40523 35.2624 5.79371 36.0669 6.57068C36.885 7.33424 37.294 8.55326 37.294 10.2277C37.294 11.8888 36.8168 13.215 35.8623 14.2063C34.9215 15.1842 33.5716 15.6732 31.8127 15.6732C31.4309 15.6732 30.9877 15.5995 30.4832 15.4521C29.9924 15.3182 29.5901 15.1306 29.2765 14.8895L27.1494 15.8138V1.10516L25.3905 1.00469V0.502345L29.7469 0V3.33557ZM31.8536 15.0704C32.3035 15.0704 32.6921 14.9632 33.0194 14.7489C33.3466 14.5345 33.5989 14.2666 33.7761 13.9451C33.9534 13.6236 34.0966 13.215 34.2057 12.7194C34.3556 11.9558 34.4306 10.998 34.4306 9.84597C34.4306 7.30075 33.7693 6.02814 32.4467 6.02814C31.7513 6.02814 31.1309 6.28936 30.5855 6.8118C30.0537 7.33424 29.7742 7.85668 29.7469 8.37912L29.7878 14.3269C30.306 14.8225 30.9946 15.0704 31.8536 15.0704Z" fill="var(--fill-0, #AA90FF)"/>
<path d="M42.5785 7.99734C42.8103 7.27396 43.233 6.65775 43.8466 6.14871C44.4738 5.63966 45.0397 5.38514 45.5442 5.38514C46.0623 5.38514 46.41 5.5124 46.5873 5.76692C46.7646 6.00805 46.8532 6.20899 46.8532 6.36974C46.8532 6.91897 46.6487 7.31415 46.2396 7.55527C45.9669 7.34094 45.5578 7.23377 45.0124 7.23377C44.4807 7.23377 43.9489 7.40122 43.4171 7.73612C42.8853 8.05762 42.6194 8.41261 42.6194 8.80109V14.8493L44.4602 14.9699V15.432H38.7539V14.9699L40.1037 14.8694V6.28936L38.4471 6.20899V5.74683L42.6194 5.5258L42.4967 7.99734H42.5785Z" fill="var(--fill-0, #AA90FF)"/>
<path d="M52.9199 15.432H47.643V14.9699L48.9725 14.8493V6.28936L47.2135 6.18889V5.76692L51.5904 5.5057V14.8493L52.9199 14.9699V15.432ZM51.7336 2.12994C51.7336 2.53182 51.5836 2.88011 51.2836 3.17482C50.9973 3.46953 50.636 3.61689 50.1996 3.61689C49.7633 3.61689 49.3951 3.47623 49.0952 3.19492C48.8088 2.90021 48.6657 2.54522 48.6657 2.12994C48.6657 1.70128 48.8157 1.33959 49.1156 1.04488C49.4156 0.736773 49.7769 0.58272 50.1996 0.58272C50.6223 0.58272 50.9837 0.736773 51.2836 1.04488C51.5836 1.35298 51.7336 1.71467 51.7336 2.12994Z" fill="var(--fill-0, #AA90FF)"/>
<path d="M60.9086 8.41931C60.9086 6.78501 60.3291 5.96786 59.1701 5.96786C57.9566 5.96786 57.2203 7.01274 56.9612 9.1025H60.8677C60.895 8.83458 60.9086 8.60685 60.9086 8.41931ZM58.9861 15.6531C57.5271 15.6531 56.3408 15.1842 55.4273 14.2465C54.5273 13.3088 54.0774 12.0697 54.0774 10.5292C54.0774 8.98863 54.5478 7.74951 55.4886 6.8118C56.4431 5.87409 57.6498 5.40523 59.1088 5.40523C60.5677 5.40523 61.6586 5.71334 62.3812 6.32955C63.1039 6.93236 63.4652 7.7763 63.4652 8.86137C63.4652 9.16947 63.438 9.49098 63.3834 9.82587H56.8999V10.5292C56.8999 12.0295 57.0908 13.1681 57.4725 13.9451C57.8543 14.7087 58.427 15.0905 59.1906 15.0905C59.9678 15.0905 60.67 14.9364 61.2972 14.6283C61.9381 14.3068 62.4358 13.858 62.7903 13.282C63.0903 13.3758 63.2402 13.5164 63.2402 13.704C63.2402 14.0389 62.9198 14.4274 62.279 14.8694C61.9654 15.0838 61.5154 15.2713 60.9291 15.432C60.3564 15.5794 59.7087 15.6531 58.9861 15.6531Z" fill="var(--fill-0, #AA90FF)"/>
<path d="M69.931 15.432H64.6542V14.9699L65.9836 14.8493V1.00469L64.2247 0.944409V0.462156L68.6016 0V14.8493L69.931 14.9699V15.432Z" fill="var(--fill-0, #AA90FF)"/>
<path d="M82.2445 2.00938V2.47154L80.4651 2.67248V14.789L85.5578 14.7288L86.6214 12.4381H87.2759L87.0304 15.432H75.9654V14.9498L77.7448 14.7689V2.67248L75.9654 2.47154V2.00938H82.2445Z" fill="var(--fill-0, #AA90FF)"/>
<path d="M95.0633 8.41931C95.0633 6.78501 94.4838 5.96786 93.3248 5.96786C92.1113 5.96786 91.375 7.01274 91.1159 9.1025H95.0224C95.0497 8.83458 95.0633 8.60685 95.0633 8.41931ZM93.1407 15.6531C91.6818 15.6531 90.4955 15.1842 89.5819 14.2465C88.682 13.3088 88.232 12.0697 88.232 10.5292C88.232 8.98863 88.7025 7.74951 89.6433 6.8118C90.5978 5.87409 91.8045 5.40523 93.2634 5.40523C94.7224 5.40523 95.8132 5.71334 96.5359 6.32955C97.2586 6.93236 97.6199 7.7763 97.6199 8.86137C97.6199 9.16947 97.5926 9.49098 97.5381 9.82587H91.0545V10.5292C91.0545 12.0295 91.2454 13.1681 91.6272 13.9451C92.009 14.7087 92.5817 15.0905 93.3453 15.0905C94.1225 15.0905 94.8247 14.9364 95.4519 14.6283C96.0928 14.3068 96.5904 13.858 96.945 13.282C97.2449 13.3758 97.3949 13.5164 97.3949 13.704C97.3949 14.0389 97.0745 14.4274 96.4336 14.8694C96.12 15.0838 95.6701 15.2713 95.0838 15.432C94.5111 15.5794 93.8634 15.6531 93.1407 15.6531Z" fill="var(--fill-0, #AA90FF)"/>
<path d="M104.945 10.7301C103.363 10.7301 102.368 11.1387 101.959 11.9558C101.781 12.3041 101.693 12.7395 101.693 13.2619C101.693 14.1594 102.006 14.6819 102.634 14.8292C102.729 14.856 102.831 14.8694 102.94 14.8694C103.377 14.8694 103.813 14.6484 104.249 14.2063C104.686 13.7509 104.917 13.1681 104.945 12.4582V10.7301ZM101.672 8.7609C101.372 8.96184 101.059 9.06231 100.731 9.06231C100.404 9.06231 100.125 8.95514 99.8929 8.74081C99.6611 8.52647 99.5452 8.21167 99.5452 7.7964C99.5452 7.36773 99.6747 6.98595 99.9338 6.65105C100.193 6.31615 100.527 6.06833 100.936 5.90758C101.74 5.57268 102.504 5.40523 103.227 5.40523C104.836 5.40523 105.933 5.68655 106.52 6.24917C107.106 6.79841 107.399 7.64904 107.399 8.80109V14.8493L109.117 14.9699V15.412L105.211 15.6531L105.027 13.9652C104.386 15.1038 103.281 15.6732 101.713 15.6732C101.004 15.6732 100.391 15.4655 99.8724 15.0503C99.3679 14.6216 99.1157 14.0255 99.1157 13.2619C99.1293 12.2438 99.6475 11.4803 100.67 10.9712C101.693 10.4488 103.118 10.1876 104.945 10.1876V8.45949C104.945 7.64235 104.829 7.01274 104.597 6.57068C104.365 6.12861 103.936 5.90758 103.309 5.90758C102.681 5.90758 102.211 6.1621 101.897 6.67114C101.693 7.00604 101.59 7.36103 101.59 7.73612C101.59 8.1112 101.618 8.4528 101.672 8.7609Z" fill="var(--fill-0, #AA90FF)"/>
<path d="M117.718 14.8493L117.841 8.47959C117.841 7.68923 117.739 7.11321 117.534 6.75152C117.33 6.38983 116.921 6.20899 116.307 6.20899C115.693 6.20899 115.093 6.57068 114.507 7.29405C113.934 8.00403 113.634 8.62024 113.607 9.14268V14.8493L115.141 14.9699V15.432H109.66V14.9699L111.01 14.8493V6.28936L109.333 6.20899V5.78702L113.525 5.54589L113.423 7.59546H113.628C113.996 6.92567 114.493 6.40992 115.121 6.04824C115.748 5.67315 116.423 5.48561 117.146 5.48561C119.327 5.48561 120.418 6.51709 120.418 8.58006C120.418 10.067 120.37 12.1568 120.275 14.8493L121.686 14.9699V15.432H116.736V14.9699L117.718 14.8493Z" fill="var(--fill-0, #AA90FF)"/>
<path d="M127.182 15.7335C125.941 15.7335 124.912 15.3249 124.094 14.5077C123.276 13.6906 122.867 12.4582 122.867 10.8105C122.867 9.16278 123.351 7.86338 124.319 6.91227C125.3 5.96116 126.603 5.48561 128.225 5.48561C129.071 5.48561 129.868 5.67985 130.618 6.06833V0.964502L128.859 0.84394V0.341594L133.236 0V14.9699L134.975 15.0503L134.995 15.5124L130.72 15.7535L130.761 13.9451H130.639C130.298 14.5077 129.814 14.9498 129.186 15.2713C128.559 15.5794 127.891 15.7335 127.182 15.7335ZM130.598 12.3376V6.8118C130.052 6.31615 129.357 6.06833 128.512 6.06833C127.434 6.06833 126.698 6.55728 126.303 7.53518C125.975 8.39251 125.812 9.48428 125.812 10.8105C125.812 13.6638 126.459 15.0905 127.755 15.0905C128.518 15.0905 129.18 14.7689 129.739 14.1259C130.311 13.4829 130.598 12.8868 130.598 12.3376Z" fill="var(--fill-0, #AA90FF)"/>
<path d="M139.45 7.99734C139.682 7.27396 140.104 6.65775 140.718 6.14871C141.345 5.63966 141.911 5.38514 142.416 5.38514C142.934 5.38514 143.281 5.5124 143.459 5.76692C143.636 6.00805 143.725 6.20899 143.725 6.36974C143.725 6.91897 143.52 7.31415 143.111 7.55527C142.838 7.34094 142.429 7.23377 141.884 7.23377C141.352 7.23377 140.82 7.40122 140.289 7.73612C139.757 8.05762 139.491 8.41261 139.491 8.80109V14.8493L141.332 14.9699V15.432H135.625V14.9699L136.975 14.8694V6.28936L135.319 6.20899V5.74683L139.491 5.5258L139.368 7.99734H139.45Z" fill="var(--fill-0, #AA90FF)"/>
<path d="M153.742 14.2063C152.788 15.1708 151.485 15.6531 149.836 15.6531C148.186 15.6531 146.884 15.1708 145.929 14.2063C144.975 13.2418 144.497 12.0161 144.497 10.5292C144.497 9.04221 144.975 7.81649 145.929 6.85199C146.884 5.88749 148.186 5.40523 149.836 5.40523C151.485 5.40523 152.788 5.88749 153.742 6.85199C154.697 7.81649 155.174 9.04221 155.174 10.5292C155.174 12.0161 154.697 13.2418 153.742 14.2063ZM147.34 10.5292C147.34 13.6236 148.172 15.1708 149.836 15.1708C151.499 15.1708 152.331 13.6236 152.331 10.5292C152.331 9.01542 152.147 7.87008 151.779 7.09311C151.41 6.30276 150.763 5.90758 149.836 5.90758C148.908 5.90758 148.261 6.30276 147.893 7.09311C147.524 7.87008 147.34 9.01542 147.34 10.5292Z" fill="var(--fill-0, #AA90FF)"/>
<path d="M162.471 14.7489C161.899 14.3872 161.612 13.925 161.612 13.3624C161.612 12.5854 162.24 12.1032 163.494 11.9156C163.712 13.1614 164.176 14.0255 164.885 14.5077C165.512 14.9364 166.173 15.1507 166.869 15.1507C167.578 15.1507 168.184 14.9431 168.689 14.5278C169.207 14.0992 169.466 13.4026 169.466 12.4381C169.466 11.7147 169.2 11.1454 168.669 10.7301C168.15 10.3014 167.489 9.92634 166.685 9.60484C165.88 9.28334 165.335 9.06231 165.048 8.94175C164.762 8.80779 164.394 8.61355 163.944 8.35902C163.508 8.1045 163.18 7.86338 162.962 7.63565C162.417 7.01944 162.144 6.30946 162.144 5.5057C162.144 4.24649 162.621 3.29538 163.576 2.65238C164.53 2.00938 165.86 1.68788 167.564 1.68788C168.532 1.68788 169.657 1.79505 170.939 2.00938V4.98326H170.264L169.446 2.6122C168.764 2.39786 168.069 2.29069 167.36 2.29069C166.664 2.29069 166.057 2.51173 165.539 2.95379C165.021 3.38246 164.762 4.02546 164.762 4.8828C164.762 5.86069 165.212 6.59077 166.112 7.07302C166.562 7.30075 167.094 7.52848 167.707 7.75621C168.321 7.98394 168.764 8.15809 169.037 8.27865C169.309 8.38582 169.671 8.56666 170.121 8.82118C170.571 9.06231 170.905 9.30343 171.123 9.54456C171.341 9.78569 171.539 10.1072 171.716 10.5091C171.893 10.8975 171.982 11.3262 171.982 11.7951C171.982 12.9337 171.491 13.8647 170.509 14.5881C169.528 15.3115 168.184 15.6732 166.48 15.6732C164.789 15.6732 163.453 15.3651 162.471 14.7489Z" fill="var(--fill-0, #AA90FF)"/>
<path d="M178.613 15.432H173.336V14.9699L174.666 14.8493V6.28936L172.907 6.18889V5.76692L177.284 5.5057V14.8493L178.613 14.9699V15.432ZM177.427 2.12994C177.427 2.53182 177.277 2.88011 176.977 3.17482C176.691 3.46953 176.329 3.61689 175.893 3.61689C175.457 3.61689 175.088 3.47623 174.788 3.19492C174.502 2.90021 174.359 2.54522 174.359 2.12994C174.359 1.70128 174.509 1.33959 174.809 1.04488C175.109 0.736773 175.47 0.58272 175.893 0.58272C176.316 0.58272 176.677 0.736773 176.977 1.04488C177.277 1.35298 177.427 1.71467 177.427 2.12994Z" fill="var(--fill-0, #AA90FF)"/>
<path d="M184.659 15.432H179.382V14.9699L180.711 14.8493V1.00469L178.952 0.944409V0.462156L183.329 0V14.8493L184.659 14.9699V15.432Z" fill="var(--fill-0, #AA90FF)"/>
<path d="M191.692 5.62627H195.619V6.10852L194.166 6.53049L190.853 15.432H189.749L185.924 6.24917L185.003 6.10852V5.62627H189.626V6.10852L188.419 6.24917L191.037 12.7797L193.307 6.53049L191.692 6.12861V5.62627Z" fill="var(--fill-0, #AA90FF)"/>
<path d="M201.896 10.7301C200.314 10.7301 199.319 11.1387 198.91 11.9558C198.733 12.3041 198.644 12.7395 198.644 13.2619C198.644 14.1594 198.958 14.6819 199.585 14.8292C199.68 14.856 199.783 14.8694 199.892 14.8694C200.328 14.8694 200.764 14.6484 201.201 14.2063C201.637 13.7509 201.869 13.1681 201.896 12.4582V10.7301ZM198.624 8.7609C198.324 8.96184 198.01 9.06231 197.683 9.06231C197.356 9.06231 197.076 8.95514 196.844 8.74081C196.612 8.52647 196.497 8.21167 196.497 7.7964C196.497 7.36773 196.626 6.98595 196.885 6.65105C197.144 6.31615 197.478 6.06833 197.887 5.90758C198.692 5.57268 199.455 5.40523 200.178 5.40523C201.787 5.40523 202.885 5.68655 203.471 6.24917C204.057 6.79841 204.35 7.64904 204.35 8.80109V14.8493L206.068 14.9699V15.412L202.162 15.6531L201.978 13.9652C201.337 15.1038 200.233 15.6732 198.665 15.6732C197.956 15.6732 197.342 15.4655 196.824 15.0503C196.319 14.6216 196.067 14.0255 196.067 13.2619C196.081 12.2438 196.599 11.4803 197.621 10.9712C198.644 10.4488 200.069 10.1876 201.896 10.1876V8.45949C201.896 7.64235 201.78 7.01274 201.548 6.57068C201.317 6.12861 200.887 5.90758 200.26 5.90758C199.633 5.90758 199.162 6.1621 198.849 6.67114C198.644 7.00604 198.542 7.36103 198.542 7.73612C198.542 8.1112 198.569 8.4528 198.624 8.7609Z" fill="var(--fill-0, #AA90FF)"/>
</g>
</svg>
