<svg preserveAspectRatio="none" width="100%" height="100%" overflow="visible" style="display: block;" viewBox="0 0 947.692 1280" fill="none" xmlns="http://www.w3.org/2000/svg">
<g id="Subtract" filter="url(#filter0_fn_0_119)">
<path d="M473.959 100C527.844 282.833 615.557 429.598 721.011 538.423C757.215 576.541 799.483 610.424 847.692 640.116C799.483 669.808 757.215 703.691 721.011 741.81C615.597 850.592 527.85 997.266 473.959 1180C420.068 997.266 332.32 850.592 226.907 741.81C190.661 703.648 148.279 669.833 100 640.116C148.279 610.4 190.661 576.585 226.907 538.423C332.361 429.598 420.073 282.833 473.959 100Z" fill="url(#paint0_linear_0_119)"/>
</g>
<defs>
<filter id="filter0_fn_0_119" x="0" y="0" width="947.692" height="1280" filterUnits="userSpaceOnUse" color-interpolation-filters="sRGB">
<feFlood flood-opacity="0" result="BackgroundImageFix"/>
<feBlend mode="normal" in="SourceGraphic" in2="BackgroundImageFix" result="shape"/>
<feGaussianBlur stdDeviation="50" result="effect1_foregroundBlur_0_119"/>
<feTurbulence type="fractalNoise" baseFrequency="0.3333333432674408 0.3333333432674408" stitchTiles="stitch" numOctaves="3" result="noise" seed="2442" />
<feColorMatrix in="noise" type="luminanceToAlpha" result="alphaNoise" />
<feComponentTransfer in="alphaNoise" result="coloredNoise1">
<feFuncA type="discrete" tableValues="1 1 1 1 1 1 1 1 1 1 1 1 1 1 1 1 1 1 1 1 1 1 1 1 1 1 1 1 1 1 1 1 1 1 1 1 1 1 1 1 1 1 1 1 1 1 1 1 1 1 1 0 0 0 0 0 0 0 0 0 0 0 0 0 0 0 0 0 0 0 0 0 0 0 0 0 0 0 0 0 0 0 0 0 0 0 0 0 0 0 0 0 0 0 0 0 0 0 0 0 "/>
</feComponentTransfer>
<feComposite operator="in" in2="effect1_foregroundBlur_0_119" in="coloredNoise1" result="noise1Clipped" />
<feFlood flood-color="rgba(0, 0, 0, 0.05)" result="color1Flood" />
<feComposite operator="in" in2="noise1Clipped" in="color1Flood" result="color1" />
<feMerge result="effect2_noise_0_119">
<feMergeNode in="effect1_foregroundBlur_0_119" />
<feMergeNode in="color1" />
</feMerge>
</filter>
<linearGradient id="paint0_linear_0_119" x1="913.165" y1="640" x2="100" y2="640" gradientUnits="userSpaceOnUse">
<stop stop-color="#AA90FF" stop-opacity="0"/>
<stop offset="1" stop-color="#AA90FF"/>
</linearGradient>
</defs>
</svg>
