<svg preserveAspectRatio="none" width="100%" height="100%" overflow="visible" style="display: block;" viewBox="0 0 36 36" fill="none" xmlns="http://www.w3.org/2000/svg">
<g id="call">
<mask id="mask0_0_127" style="mask-type:alpha" maskUnits="userSpaceOnUse" x="0" y="0" width="36" height="36">
<rect id="Bounding box" width="36" height="36" fill="var(--fill-0, #D9D9D9)"/>
</mask>
<g mask="url(#mask0_0_127)">
<path id="call_2" d="M29.1604 30.75C26.3336 30.75 23.4938 30.0928 20.6407 28.7783C17.788 27.4638 15.1669 25.6095 12.7774 23.2155C10.3881 20.8213 8.53625 18.2 7.22175 15.3518C5.90725 12.5038 5.25 9.66638 5.25 6.83963C5.25 6.38538 5.4 6.00687 5.7 5.70412C6 5.40137 6.375 5.25 6.825 5.25H11.7173C12.096 5.25 12.4301 5.37363 12.7196 5.62088C13.0091 5.86788 13.1933 6.17312 13.272 6.53662L14.1319 10.95C14.1914 11.3595 14.1789 11.7114 14.0944 12.0056C14.0096 12.2999 13.8576 12.547 13.6384 12.747L10.1741 16.1194C10.7316 17.1404 11.3686 18.1063 12.0851 19.017C12.8014 19.9275 13.5769 20.7971 14.4116 21.6259C15.2346 22.4491 16.1096 23.2136 17.0366 23.9194C17.9636 24.6251 18.9646 25.2819 20.0396 25.8896L23.4056 22.4944C23.6404 22.2501 23.9246 22.0789 24.2584 21.9806C24.5919 21.8826 24.9385 21.8586 25.2983 21.9086L29.4634 22.7569C29.8421 22.8569 30.1512 23.0501 30.3907 23.3366C30.6302 23.6231 30.75 23.9481 30.75 24.3116V29.175C30.75 29.625 30.5986 30 30.2959 30.3C29.9931 30.6 29.6146 30.75 29.1604 30.75ZM9.1095 13.9905L11.7866 11.4289C11.8346 11.3904 11.8659 11.3375 11.8804 11.2702C11.8949 11.203 11.8925 11.1405 11.8733 11.0827L11.2211 7.73063C11.2019 7.65388 11.1683 7.59625 11.1203 7.55775C11.0723 7.51925 11.0098 7.5 10.9328 7.5H7.725C7.66725 7.5 7.61912 7.51925 7.58062 7.55775C7.54237 7.59625 7.52325 7.64438 7.52325 7.70213C7.6 8.72713 7.76775 9.76838 8.0265 10.8259C8.285 11.8836 8.646 12.9385 9.1095 13.9905ZM22.1595 26.9539C23.1537 27.4174 24.1908 27.7718 25.2705 28.017C26.3505 28.262 27.3596 28.4076 28.2979 28.4539C28.3556 28.4539 28.4038 28.4346 28.4423 28.3961C28.4808 28.3576 28.5 28.3095 28.5 28.2518V25.0961C28.5 25.0191 28.4808 24.9566 28.4423 24.9086C28.4038 24.8606 28.3461 24.827 28.2694 24.8078L25.1194 24.1672C25.0616 24.148 25.0111 24.1456 24.9679 24.1601C24.9246 24.1746 24.8789 24.2059 24.8306 24.2539L22.1595 26.9539Z" fill="var(--fill-0, white)"/>
</g>
</g>
</svg>
