<svg preserveAspectRatio="none" width="100%" height="100%" overflow="visible" style="display: block;" viewBox="0 0 56 53.2" fill="none" xmlns="http://www.w3.org/2000/svg">
<g id="enterprise">
<path id="enterprise_2" d="M5.6 53.2C4.06 53.2 2.74167 52.6517 1.645 51.555C0.548333 50.4583 0 49.14 0 47.6V16.8C0 15.26 0.548333 13.9417 1.645 12.845C2.74167 11.7483 4.06 11.2 5.6 11.2H16.8V5.6C16.8 4.06 17.3483 2.74167 18.445 1.645C19.5417 0.548333 20.86 0 22.4 0H33.6C35.14 0 36.4583 0.548333 37.555 1.645C38.6517 2.74167 39.2 4.06 39.2 5.6V11.2H50.4C51.94 11.2 53.2583 11.7483 54.355 12.845C55.4517 13.9417 56 15.26 56 16.8V47.6C56 49.14 55.4517 50.4583 54.355 51.555C53.2583 52.6517 51.94 53.2 50.4 53.2H5.6ZM22.4 11.2H33.6V5.6H22.4V11.2Z" fill="url(#paint0_linear_0_111)"/>
</g>
<defs>
<linearGradient id="paint0_linear_0_111" x1="28" y1="-3.60678" x2="28" y2="53.2" gradientUnits="userSpaceOnUse">
<stop stop-color="#AA90FF" stop-opacity="0"/>
<stop offset="0.5" stop-color="#AA90FF" stop-opacity="0.5"/>
<stop offset="1" stop-color="#AA90FF"/>
</linearGradient>
</defs>
</svg>
