<svg preserveAspectRatio="none" width="100%" height="100%" overflow="visible" style="display: block;" viewBox="0 0 68 34" fill="none" xmlns="http://www.w3.org/2000/svg">
<g id="groups">
<path id="groups_2" d="M0 34V29.5375C0 27.5069 1.03889 25.8542 3.11667 24.5792C5.19444 23.3042 7.93333 22.6667 11.3333 22.6667C11.9472 22.6667 12.5375 22.6785 13.1042 22.7021C13.6708 22.7257 14.2139 22.7847 14.7333 22.8792C14.0722 23.8708 13.5764 24.9097 13.2458 25.9958C12.9153 27.0819 12.75 28.2153 12.75 29.3958V34H0ZM17 34V29.3958C17 27.8847 17.4132 26.5035 18.2396 25.2521C19.066 24.0007 20.2347 22.9028 21.7458 21.9583C23.2569 21.0139 25.0632 20.3056 27.1646 19.8333C29.266 19.3611 31.5444 19.125 34 19.125C36.5028 19.125 38.8049 19.3611 40.9062 19.8333C43.0076 20.3056 44.8139 21.0139 46.325 21.9583C47.8361 22.9028 48.9931 24.0007 49.7958 25.2521C50.5986 26.5035 51 27.8847 51 29.3958V34H17ZM55.25 34V29.3958C55.25 28.1681 55.0965 27.0111 54.7896 25.925C54.4826 24.8389 54.0222 23.8236 53.4083 22.8792C53.9278 22.7847 54.459 22.7257 55.0021 22.7021C55.5451 22.6785 56.1 22.6667 56.6667 22.6667C60.0667 22.6667 62.8056 23.2924 64.8833 24.5438C66.9611 25.7951 68 27.4597 68 29.5375V34H55.25ZM11.3333 19.8333C9.775 19.8333 8.44097 19.2785 7.33125 18.1687C6.22153 17.059 5.66667 15.725 5.66667 14.1667C5.66667 12.5611 6.22153 11.2153 7.33125 10.1292C8.44097 9.04306 9.775 8.5 11.3333 8.5C12.9389 8.5 14.2847 9.04306 15.3708 10.1292C16.4569 11.2153 17 12.5611 17 14.1667C17 15.725 16.4569 17.059 15.3708 18.1687C14.2847 19.2785 12.9389 19.8333 11.3333 19.8333ZM56.6667 19.8333C55.1083 19.8333 53.7743 19.2785 52.6646 18.1687C51.5549 17.059 51 15.725 51 14.1667C51 12.5611 51.5549 11.2153 52.6646 10.1292C53.7743 9.04306 55.1083 8.5 56.6667 8.5C58.2722 8.5 59.6181 9.04306 60.7042 10.1292C61.7903 11.2153 62.3333 12.5611 62.3333 14.1667C62.3333 15.725 61.7903 17.059 60.7042 18.1687C59.6181 19.2785 58.2722 19.8333 56.6667 19.8333ZM34 17C31.6389 17 29.6319 16.1736 27.9792 14.5208C26.3264 12.8681 25.5 10.8611 25.5 8.5C25.5 6.09167 26.3264 4.07292 27.9792 2.44375C29.6319 0.814583 31.6389 0 34 0C36.4083 0 38.4271 0.814583 40.0562 2.44375C41.6854 4.07292 42.5 6.09167 42.5 8.5C42.5 10.8611 41.6854 12.8681 40.0562 14.5208C38.4271 16.1736 36.4083 17 34 17Z" fill="url(#paint0_linear_0_72)"/>
</g>
<defs>
<linearGradient id="paint0_linear_0_72" x1="34" y1="-2.30508" x2="34" y2="34" gradientUnits="userSpaceOnUse">
<stop stop-color="#AA90FF" stop-opacity="0"/>
<stop offset="1" stop-color="#AA90FF"/>
</linearGradient>
</defs>
</svg>
