<svg preserveAspectRatio="none" width="100%" height="100%" overflow="visible" style="display: block;" viewBox="0 0 36 36" fill="none" xmlns="http://www.w3.org/2000/svg">
<g id="language">
<mask id="mask0_0_132" style="mask-type:alpha" maskUnits="userSpaceOnUse" x="0" y="0" width="36" height="36">
<rect id="Bounding box" width="36" height="36" fill="var(--fill-0, #D9D9D9)"/>
</mask>
<g mask="url(#mask0_0_132)">
<path id="language_2" d="M12.4688 31.1264C10.735 30.3774 9.223 29.3577 7.93275 28.0672C6.64225 26.7769 5.6225 25.2649 4.8735 23.5312C4.1245 21.7974 3.75 19.9498 3.75 17.9883C3.75 16.0268 4.1245 14.183 4.8735 12.457C5.6225 10.731 6.64225 9.22291 7.93275 7.93266C9.223 6.64216 10.735 5.62241 12.4688 4.87341C14.2025 4.12441 16.0501 3.74991 18.0116 3.74991C19.9731 3.74991 21.8169 4.12441 23.5429 4.87341C25.2689 5.62241 26.777 6.64216 28.0673 7.93266C29.3578 9.22291 30.3775 10.731 31.1265 12.457C31.8755 14.183 32.25 16.0268 32.25 17.9883C32.25 19.9498 31.8755 21.7974 31.1265 23.5312C30.3775 25.2649 29.3578 26.7769 28.0673 28.0672C26.777 29.3577 25.2689 30.3774 23.5429 31.1264C21.8169 31.8754 19.9731 32.2499 18.0116 32.2499C16.0501 32.2499 14.2025 31.8754 12.4688 31.1264ZM18 29.968C18.7655 28.9528 19.4098 27.9288 19.9328 26.896C20.4558 25.8633 20.8818 24.7344 21.2108 23.5094H14.7893C15.1375 24.7729 15.5684 25.921 16.0819 26.9538C16.5951 27.9865 17.2345 28.9913 18 29.968ZM15.0953 29.5555C14.5203 28.7305 14.0039 27.7927 13.5461 26.7419C13.0884 25.6909 12.7326 24.6134 12.4789 23.5094H7.3905C8.18275 25.0672 9.24525 26.3759 10.578 27.4357C11.9108 28.4952 13.4165 29.2018 15.0953 29.5555ZM20.9048 29.5555C22.5835 29.2018 24.0893 28.4952 25.422 27.4357C26.7548 26.3759 27.8173 25.0672 28.6095 23.5094H23.5211C23.2191 24.6229 22.8393 25.7052 22.3815 26.7562C21.924 27.8072 21.4318 28.7403 20.9048 29.5555ZM6.447 21.2594H12.0233C11.929 20.7019 11.8606 20.1553 11.8181 19.6195C11.7759 19.084 11.7548 18.5442 11.7548 17.9999C11.7548 17.4557 11.7759 16.9158 11.8181 16.3803C11.8606 15.8445 11.929 15.2979 12.0233 14.7404H6.447C6.30275 15.2499 6.19225 15.7797 6.1155 16.3297C6.0385 16.8797 6 17.4364 6 17.9999C6 18.5634 6.0385 19.1202 6.1155 19.6702C6.19225 20.2202 6.30275 20.7499 6.447 21.2594ZM14.2729 21.2594H21.7271C21.8211 20.7019 21.8894 20.1602 21.9319 19.6342C21.9741 19.1082 21.9953 18.5634 21.9953 17.9999C21.9953 17.4364 21.9741 16.8917 21.9319 16.3657C21.8894 15.8397 21.8211 15.2979 21.7271 14.7404H14.2729C14.1789 15.2979 14.1106 15.8397 14.0681 16.3657C14.0259 16.8917 14.0048 17.4364 14.0048 17.9999C14.0048 18.5634 14.0259 19.1082 14.0681 19.6342C14.1106 20.1602 14.1789 20.7019 14.2729 21.2594ZM23.9768 21.2594H29.553C29.6973 20.7499 29.8078 20.2202 29.8845 19.6702C29.9615 19.1202 30 18.5634 30 17.9999C30 17.4364 29.9615 16.8797 29.8845 16.3297C29.8078 15.7797 29.6973 15.2499 29.553 14.7404H23.9768C24.071 15.2979 24.1394 15.8445 24.1819 16.3803C24.2241 16.9158 24.2453 17.4557 24.2453 17.9999C24.2453 18.5442 24.2241 19.084 24.1819 19.6195C24.1394 20.1553 24.071 20.7019 23.9768 21.2594ZM23.5211 12.4904H28.6095C27.8078 10.9134 26.7525 9.60466 25.4438 8.56416C24.135 7.52391 22.622 6.81241 20.9048 6.42966C21.4798 7.30266 21.9913 8.25753 22.4393 9.29428C22.8875 10.3308 23.2481 11.3962 23.5211 12.4904ZM14.7893 12.4904H21.2108C20.8625 11.2364 20.4245 10.081 19.8968 9.02428C19.3688 7.96753 18.7365 6.97003 18 6.03178C17.2635 6.97003 16.6313 7.96753 16.1033 9.02428C15.5755 10.081 15.1375 11.2364 14.7893 12.4904ZM7.3905 12.4904H12.4789C12.7519 11.3962 13.1125 10.3308 13.5608 9.29428C14.0088 8.25753 14.5203 7.30266 15.0953 6.42966C13.3683 6.81241 11.8529 7.52641 10.5491 8.57166C9.24513 9.61666 8.19225 10.9229 7.3905 12.4904Z" fill="var(--fill-0, white)"/>
</g>
</g>
</svg>
