<svg preserveAspectRatio="none" width="100%" height="100%" overflow="visible" style="display: block;" viewBox="0 0 36 36" fill="none" xmlns="http://www.w3.org/2000/svg">
<g id="mail">
<mask id="mask0_0_135" style="mask-type:alpha" maskUnits="userSpaceOnUse" x="0" y="0" width="36" height="36">
<rect id="Bounding box" width="36" height="36" fill="var(--fill-0, #D9D9D9)"/>
</mask>
<g mask="url(#mask0_0_135)">
<path id="mail_2" d="M6.46163 29.25C5.70388 29.25 5.0625 28.9875 4.5375 28.4625C4.0125 27.9375 3.75 27.2961 3.75 26.5384V9.46162C3.75 8.70387 4.0125 8.0625 4.5375 7.5375C5.0625 7.0125 5.70388 6.75 6.46163 6.75H29.5384C30.2961 6.75 30.9375 7.0125 31.4625 7.5375C31.9875 8.0625 32.25 8.70387 32.25 9.46162V26.5384C32.25 27.2961 31.9875 27.9375 31.4625 28.4625C30.9375 28.9875 30.2961 29.25 29.5384 29.25H6.46163ZM30 11.1634L18.7298 18.378C18.6145 18.4432 18.4953 18.4946 18.372 18.5321C18.249 18.5696 18.125 18.5884 18 18.5884C17.875 18.5884 17.751 18.5696 17.628 18.5321C17.5048 18.4946 17.3855 18.4432 17.2703 18.378L6 11.1634V26.5384C6 26.6731 6.04325 26.7837 6.12975 26.8702C6.21625 26.9567 6.32688 27 6.46163 27H29.5384C29.6731 27 29.7838 26.9567 29.8703 26.8702C29.9568 26.7837 30 26.6731 30 26.5384V11.1634ZM18 16.5L29.7694 9H6.23063L18 16.5ZM6 11.5095V9.79463V9.83925V9.79162V11.5095Z" fill="var(--fill-0, white)"/>
</g>
</g>
</svg>
